<?xml version="1.0" encoding="UTF-8" standalone="no"?>
<!DOCTYPE svg PUBLIC "-//W3C//DTD SVG 1.1//EN"
 "http://www.w3.org/Graphics/SVG/1.1/DTD/svg11.dtd">
<!-- Generated by graphviz version 2.47.1 (20210417.1919)
 -->
<!-- Pages: 1 -->
<svg width="885pt" height="332pt"
 viewBox="0.00 0.00 885.04 332.00" xmlns="http://www.w3.org/2000/svg" xmlns:xlink="http://www.w3.org/1999/xlink">
<g id="graph0" class="graph" transform="scale(1 1) rotate(0) translate(4 328)">
<polygon fill="white" stroke="transparent" points="-4,4 -4,-328 881.04,-328 881.04,4 -4,4"/>
<!-- [root] aws_security_group.sec_group_block (expand) -->
<g id="node1" class="node">
<title>[root] aws_security_group.sec_group_block (expand)</title>
<polygon fill="none" stroke="black" points="544.36,-180 312.36,-180 312.36,-144 544.36,-144 544.36,-180"/>
<text text-anchor="middle" x="428.36" y="-158.3" font-family="Times New Roman,serif" font-size="14.00">aws_security_group.sec_group_block</text>
</g>
<!-- [root] provider[&quot;registry.terraform.io/hashicorp/aws&quot;] -->
<g id="node2" class="node">
<title>[root] provider[&quot;registry.terraform.io/hashicorp/aws&quot;]</title>
<polygon fill="none" stroke="black" points="257.36,-108 0.14,-90 257.36,-72 514.59,-90 257.36,-108"/>
<text text-anchor="middle" x="257.36" y="-86.3" font-family="Times New Roman,serif" font-size="14.00">provider[&quot;registry.terraform.io/hashicorp/aws&quot;]</text>
</g>
<!-- [root] aws_security_group.sec_group_block (expand)&#45;&gt;[root] provider[&quot;registry.terraform.io/hashicorp/aws&quot;] -->
<g id="edge1" class="edge">
<title>[root] aws_security_group.sec_group_block (expand)&#45;&gt;[root] provider[&quot;registry.terraform.io/hashicorp/aws&quot;]</title>
<path fill="none" stroke="black" d="M386.53,-143.88C361,-133.42 328.35,-120.06 302.27,-109.38"/>
<polygon fill="black" stroke="black" points="303.57,-106.13 292.99,-105.58 300.91,-112.61 303.57,-106.13"/>
</g>
<!-- [root] var.sec_group_ports -->
<g id="node4" class="node">
<title>[root] var.sec_group_ports</title>
<polygon fill="none" stroke="black" points="660.36,-108 532.36,-108 532.36,-72 666.36,-72 666.36,-102 660.36,-108"/>
<polyline fill="none" stroke="black" points="660.36,-108 660.36,-102 "/>
<polyline fill="none" stroke="black" points="666.36,-102 660.36,-102 "/>
<text text-anchor="middle" x="599.36" y="-86.3" font-family="Times New Roman,serif" font-size="14.00">var.sec_group_ports</text>
</g>
<!-- [root] aws_security_group.sec_group_block (expand)&#45;&gt;[root] var.sec_group_ports -->
<g id="edge2" class="edge">
<title>[root] aws_security_group.sec_group_block (expand)&#45;&gt;[root] var.sec_group_ports</title>
<path fill="none" stroke="black" d="M470.2,-143.88C493.78,-134.22 523.42,-122.09 548.36,-111.88"/>
<polygon fill="black" stroke="black" points="549.74,-115.1 557.67,-108.07 547.09,-108.62 549.74,-115.1"/>
</g>
<!-- [root] var.access_key -->
<g id="node3" class="node">
<title>[root] var.access_key</title>
<polygon fill="none" stroke="black" points="243.36,-36 147.36,-36 147.36,0 249.36,0 249.36,-30 243.36,-36"/>
<polyline fill="none" stroke="black" points="243.36,-36 243.36,-30 "/>
<polyline fill="none" stroke="black" points="249.36,-30 243.36,-30 "/>
<text text-anchor="middle" x="198.36" y="-14.3" font-family="Times New Roman,serif" font-size="14.00">var.access_key</text>
</g>
<!-- [root] provider[&quot;registry.terraform.io/hashicorp/aws&quot;]&#45;&gt;[root] var.access_key -->
<g id="edge5" class="edge">
<title>[root] provider[&quot;registry.terraform.io/hashicorp/aws&quot;]&#45;&gt;[root] var.access_key</title>
<path fill="none" stroke="black" d="M243.68,-72.76C236.45,-64.18 227.41,-53.46 219.32,-43.86"/>
<polygon fill="black" stroke="black" points="221.92,-41.51 212.8,-36.12 216.57,-46.03 221.92,-41.51"/>
</g>
<!-- [root] var.secret_key -->
<g id="node5" class="node">
<title>[root] var.secret_key</title>
<polygon fill="none" stroke="black" points="359.36,-36 267.36,-36 267.36,0 365.36,0 365.36,-30 359.36,-36"/>
<polyline fill="none" stroke="black" points="359.36,-36 359.36,-30 "/>
<polyline fill="none" stroke="black" points="365.36,-30 359.36,-30 "/>
<text text-anchor="middle" x="316.36" y="-14.3" font-family="Times New Roman,serif" font-size="14.00">var.secret_key</text>
</g>
<!-- [root] provider[&quot;registry.terraform.io/hashicorp/aws&quot;]&#45;&gt;[root] var.secret_key -->
<g id="edge6" class="edge">
<title>[root] provider[&quot;registry.terraform.io/hashicorp/aws&quot;]&#45;&gt;[root] var.secret_key</title>
<path fill="none" stroke="black" d="M271.05,-72.76C278.28,-64.18 287.32,-53.46 295.41,-43.86"/>
<polygon fill="black" stroke="black" points="298.16,-46.03 301.93,-36.12 292.81,-41.51 298.16,-46.03"/>
</g>
<!-- [root] meta.count&#45;boundary (EachMode fixup) -->
<g id="node6" class="node">
<title>[root] meta.count&#45;boundary (EachMode fixup)</title>
<ellipse fill="none" stroke="black" cx="213.36" cy="-234" rx="180.87" ry="18"/>
<text text-anchor="middle" x="213.36" y="-230.3" font-family="Times New Roman,serif" font-size="14.00">[root] meta.count&#45;boundary (EachMode fixup)</text>
</g>
<!-- [root] meta.count&#45;boundary (EachMode fixup)&#45;&gt;[root] aws_security_group.sec_group_block (expand) -->
<g id="edge3" class="edge">
<title>[root] meta.count&#45;boundary (EachMode fixup)&#45;&gt;[root] aws_security_group.sec_group_block (expand)</title>
<path fill="none" stroke="black" d="M263.5,-216.68C294.09,-206.72 333.44,-193.91 366.02,-183.3"/>
<polygon fill="black" stroke="black" points="367.47,-186.51 375.9,-180.08 365.31,-179.85 367.47,-186.51"/>
</g>
<!-- [root] provider[&quot;registry.terraform.io/hashicorp/aws&quot;] (close) -->
<g id="node7" class="node">
<title>[root] provider[&quot;registry.terraform.io/hashicorp/aws&quot;] (close)</title>
<ellipse fill="none" stroke="black" cx="644.36" cy="-234" rx="232.86" ry="18"/>
<text text-anchor="middle" x="644.36" y="-230.3" font-family="Times New Roman,serif" font-size="14.00">[root] provider[&quot;registry.terraform.io/hashicorp/aws&quot;] (close)</text>
</g>
<!-- [root] provider[&quot;registry.terraform.io/hashicorp/aws&quot;] (close)&#45;&gt;[root] aws_security_group.sec_group_block (expand) -->
<g id="edge4" class="edge">
<title>[root] provider[&quot;registry.terraform.io/hashicorp/aws&quot;] (close)&#45;&gt;[root] aws_security_group.sec_group_block (expand)</title>
<path fill="none" stroke="black" d="M593.18,-216.41C562.54,-206.48 523.37,-193.79 490.91,-183.27"/>
<polygon fill="black" stroke="black" points="491.66,-179.83 481.06,-180.08 489.5,-186.49 491.66,-179.83"/>
</g>
<!-- [root] root -->
<g id="node8" class="node">
<title>[root] root</title>
<ellipse fill="none" stroke="black" cx="428.36" cy="-306" rx="49.29" ry="18"/>
<text text-anchor="middle" x="428.36" y="-302.3" font-family="Times New Roman,serif" font-size="14.00">[root] root</text>
</g>
<!-- [root] root&#45;&gt;[root] meta.count&#45;boundary (EachMode fixup) -->
<g id="edge7" class="edge">
<title>[root] root&#45;&gt;[root] meta.count&#45;boundary (EachMode fixup)</title>
<path fill="none" stroke="black" d="M392.86,-293.44C360.43,-282.88 311.81,-267.05 273.34,-254.53"/>
<polygon fill="black" stroke="black" points="274.39,-251.19 263.8,-251.42 272.23,-257.85 274.39,-251.19"/>
</g>
<!-- [root] root&#45;&gt;[root] provider[&quot;registry.terraform.io/hashicorp/aws&quot;] (close) -->
<g id="edge8" class="edge">
<title>[root] root&#45;&gt;[root] provider[&quot;registry.terraform.io/hashicorp/aws&quot;] (close)</title>
<path fill="none" stroke="black" d="M464.03,-293.44C496.4,-282.95 544.8,-267.27 583.32,-254.78"/>
<polygon fill="black" stroke="black" points="584.45,-258.1 592.88,-251.68 582.29,-251.44 584.45,-258.1"/>
</g>
</g>
</svg>
